<svg width="78" height="78" viewBox="0 0 78 78" fill="none" xmlns="http://www.w3.org/2000/svg">
<path d="M63.1045 48.6748C63.1039 48.6759 63.1041 48.6776 63.1035 48.6787C63.1612 48.5753 63.2038 48.4811 63.2275 48.4277C63.2294 48.4236 63.2589 48.3585 63.2842 48.2939C63.3173 48.2092 63.3495 48.1173 63.3779 48.0186V48.0176C63.3949 47.9584 63.4092 47.8976 63.4111 47.8896C63.4291 47.8153 63.4503 47.7165 63.4668 47.6035L63.4678 47.6025C63.4739 47.5603 63.4768 47.5249 63.4785 47.5078C63.4791 47.5025 63.4801 47.4948 63.4805 47.4912C63.4891 47.4122 63.4987 47.3056 63.5 47.1846V47.1836C63.5004 47.1397 63.4994 47.1035 63.499 47.0928L63.498 47.0898C63.4962 46.9931 63.4901 46.8998 63.4805 46.8115C63.4815 46.8206 63.4823 46.8272 63.4824 46.8281C63.4824 46.8279 63.4825 46.8273 63.4824 46.8262C63.4823 46.8246 63.4818 46.8203 63.4814 46.8164L63.4688 46.71L63.4111 46.4131L63.3848 46.3105C63.3598 46.2209 63.3282 46.1223 63.2881 46.0186L63.249 45.9219L63.2256 45.8652L63.1543 45.7256C63.1524 45.7214 63.1507 45.7167 63.1484 45.7119L63.0879 45.5938L54.3438 30.291C54.3416 30.2873 54.339 30.2839 54.3369 30.2803L54.333 30.2734L54.2363 30.1221C54.2325 30.1167 54.2283 30.1118 54.2266 30.1094C54.2255 30.1079 54.2251 30.1062 54.2246 30.1055H54.2236L54.0908 29.9189C53.9335 29.7157 53.7466 29.5248 53.5283 29.3574H53.5273C52.9877 28.9439 52.3186 28.7091 51.6172 28.709H36.1855L39.0596 23.5361C39.5995 22.5639 39.585 21.3782 39.0215 20.4199V20.4189C38.4924 19.5198 37.5536 18.9471 36.5225 18.8789L36.3154 18.8721H25.3848C25.3648 18.8721 25.3467 18.8735 25.3311 18.874C25.3252 18.8741 25.3194 18.8749 25.3135 18.875C25.3053 18.8754 25.2981 18.8746 25.292 18.875L25.2891 18.876C25.2555 18.877 25.2216 18.8768 25.1875 18.8789L25.0215 18.8936C24.9741 18.8991 24.9344 18.9055 24.9121 18.9092C24.9013 18.911 24.8905 18.9132 24.8857 18.9141L24.8779 18.915C24.8127 18.9257 24.7348 18.9406 24.6504 18.9609V18.9619C24.6009 18.9738 24.55 18.9866 24.498 19.002H24.4971C24.4257 19.023 24.3582 19.0459 24.2949 19.0693C24.2932 19.07 24.2908 19.0708 24.2842 19.0732C24.2783 19.0754 24.2673 19.0788 24.2559 19.083L24.1504 19.125C23.9489 19.2111 23.751 19.3208 23.5625 19.4551L23.5547 19.46L23.5156 19.4883L23.4893 19.5078C23.4645 19.5266 23.4437 19.5433 23.4287 19.5557C23.4235 19.56 23.4184 19.5647 23.4141 19.5684L23.3896 19.5879C23.3725 19.6016 23.3407 19.6273 23.3047 19.6592C23.2817 19.6795 23.259 19.7009 23.2373 19.7227L23.2051 19.7549C23.1799 19.7791 23.1519 19.806 23.123 19.8359L23.084 19.876C23.0681 19.8922 23.0522 19.9098 23.0371 19.9268L14.293 29.7637L14.1982 29.876C14.1808 29.8976 14.1549 29.931 14.126 29.9697H14.125C14.0918 30.0142 14.061 30.0584 14.0322 30.1016L13.9512 30.2295C13.9549 30.2234 13.9578 30.2183 13.96 30.2148M63.1045 48.6748C63.0964 48.69 63.088 48.7079 63.0771 48.7266C63.0502 48.773 63.0255 48.8107 63.0088 48.835C63.0032 48.8431 62.9968 48.8499 62.9922 48.8564M63.1045 48.6748C63.1128 48.6591 63.1216 48.6465 63.127 48.6357L63.1387 48.6104C63.1326 48.6229 63.1204 48.6461 63.1045 48.6748ZM62.9922 48.8564L62.8799 49.0215L62.8018 49.123C62.7996 49.1258 62.7965 49.1302 62.793 49.1348L62.708 49.2363L53.9639 59.0732C53.9305 59.1108 53.9006 59.141 53.8799 59.1611C53.8641 59.1765 53.8502 59.1894 53.8428 59.1963L53.7451 59.292C53.7012 59.3326 53.6578 59.3699 53.6162 59.4043V59.4053L53.4482 59.5352C53.3735 59.5889 53.2986 59.6355 53.2842 59.6445H53.2832C53.2803 59.6464 53.277 59.648 53.2686 59.6533C53.2617 59.6577 53.2507 59.6651 53.2383 59.6729C53.2135 59.6883 53.1731 59.7119 53.125 59.7383C53.0761 59.7651 53.0341 59.7873 53.0059 59.8008C52.9916 59.8076 52.9785 59.8133 52.9697 59.8174L52.9502 59.8262C52.9473 59.8275 52.9438 59.8296 52.9346 59.834C52.9269 59.8377 52.9137 59.8439 52.8994 59.8506C52.8711 59.8638 52.8252 59.8853 52.7695 59.9072V59.9062C52.7172 59.9269 52.6724 59.9423 52.6484 59.9502C52.6372 59.9539 52.6256 59.9575 52.6211 59.959C52.6181 59.96 52.6161 59.9607 52.6152 59.9609L52.6143 59.9619C52.611 59.963 52.5002 60.0018 52.3926 60.0293L52.3916 60.0283C52.3394 60.0416 52.2938 60.05 52.2686 60.0547L51.957 58.5889L52.2676 60.0547C52.2638 60.0554 52.2606 60.0561 52.2578 60.0566M62.9922 48.8564C62.9837 48.8683 62.9782 48.8777 62.9766 48.8799V48.8809C62.9779 48.879 62.9816 48.8739 62.9863 48.8672C62.9883 48.8644 62.9895 48.8603 62.9922 48.8564ZM52.2578 60.0566C52.2139 60.0661 52.105 60.0894 51.9854 60.1035L51.9863 60.1045C51.8815 60.1169 51.7706 60.1245 51.6543 60.126C51.6424 60.1263 51.6298 60.1279 51.6172 60.1279H40.6875C39.5755 60.1279 38.5457 59.5395 37.9814 58.5811V58.5801C37.4176 57.6216 37.4022 56.4363 37.9424 55.4639L40.8154 50.291H25.3848C24.5454 50.291 23.7526 49.9552 23.1719 49.3789L23.1621 49.3691C23.1318 49.3388 23.1066 49.312 23.0889 49.292C23.0717 49.2726 23.0581 49.2556 23.0518 49.248C23.0502 49.2462 23.0489 49.2444 23.0479 49.2432L23.0723 49.2705L22.9697 49.1543C22.867 49.0317 22.7633 48.8901 22.6689 48.7275V48.7266C22.6666 48.7226 22.6643 48.7187 22.6621 48.7148C22.6609 48.7128 22.6593 48.711 22.6582 48.709L13.9141 33.4062C13.9108 33.4005 13.9073 33.395 13.9043 33.3896M52.2578 60.0566C52.2558 60.057 52.2543 60.0583 52.2529 60.0586C52.249 60.0593 52.2439 60.0603 52.2422 60.0605L52.2412 60.0615C52.2434 60.0611 52.2544 60.0589 52.2695 60.0557H52.2686C52.2657 60.0563 52.2617 60.0558 52.2578 60.0566ZM13.9043 33.3896L13.9053 33.3906V33.3896C13.8679 33.3233 13.8209 33.2362 13.7754 33.1348C13.761 33.1028 13.7502 33.075 13.7451 33.0625C13.7432 33.0578 13.7398 33.051 13.7393 33.0498L13.7402 33.0508C13.7384 33.0465 13.7299 33.0267 13.7217 33.0059C13.702 32.9562 13.6825 32.9041 13.6641 32.8496L13.6123 32.6787C13.6013 32.6386 13.5935 32.6047 13.5908 32.5928L13.5537 32.4199C13.5242 32.2608 13.5075 32.0989 13.5029 31.9355C13.5026 31.9295 13.5014 31.9202 13.501 31.9102C13.5003 31.8933 13.4999 31.8686 13.5 31.8389L13.502 31.7686L13.5078 31.6406L13.5117 31.5928C13.5256 31.4231 13.5531 31.2493 13.5977 31.0742L13.6162 31.0049L13.6719 30.8271C13.6889 30.7782 13.7066 30.7322 13.7236 30.6895C13.7239 30.6887 13.7241 30.6869 13.7246 30.6855C13.7262 30.6813 13.73 30.6712 13.7344 30.6602C13.7388 30.6489 13.7454 30.6338 13.7529 30.6162L13.834 30.4414C13.8621 30.3857 13.8909 30.3326 13.9199 30.2822C13.9217 30.2792 13.923 30.2755 13.9248 30.2725C13.9344 30.256 13.9432 30.2422 13.9492 30.2324C13.9537 30.2251 13.9575 30.2187 13.96 30.2148M13.9043 33.3896C13.8981 33.3784 13.8925 33.3676 13.8877 33.3584C13.8807 33.345 13.8746 33.3334 13.8701 33.3242C13.8657 33.3152 13.8626 33.3076 13.8604 33.3027L13.8584 33.2988C13.8601 33.3024 13.8625 33.3089 13.8662 33.3164C13.8701 33.3243 13.8755 33.3345 13.8818 33.3467C13.8881 33.3587 13.8952 33.3735 13.9043 33.3896ZM13.96 30.2148C13.9607 30.2137 13.9615 30.2126 13.9619 30.2119L13.9629 30.21L13.9619 30.2109C13.9614 30.2118 13.961 30.2132 13.96 30.2148ZM51.7627 60.1201C51.7643 60.12 51.766 60.1203 51.7676 60.1201C51.7743 60.1195 51.7808 60.1179 51.7871 60.1172C51.7793 60.1181 51.7711 60.1193 51.7627 60.1201ZM22.6064 48.6084C22.6084 48.6126 22.6118 48.6199 22.6162 48.6289C22.6127 48.6217 22.6103 48.6154 22.6084 48.6113C22.6071 48.6087 22.6061 48.6059 22.6055 48.6045C22.6049 48.6033 22.6036 48.6027 22.6035 48.6025C22.6039 48.6033 22.6052 48.6058 22.6064 48.6084ZM25.2734 18.876C25.2663 18.8764 25.2605 18.8767 25.2578 18.877C25.2598 18.8768 25.263 18.8772 25.2666 18.877C25.2711 18.8766 25.2778 18.8764 25.2852 18.876C25.2808 18.8762 25.2766 18.8758 25.2734 18.876Z" fill="white" stroke="white" stroke-width="3" stroke-linejoin="round"/>
<path d="M16.6396 31.8484L25.3838 22.0112L30.8489 31.8484H16.6396Z" fill="#D15B9A"/>
<path d="M40.6865 56.9881L46.1517 47.1509L51.6168 56.9881H40.6865Z" fill="#A02466"/>
<path d="M25.3838 22.0114L30.8489 31.8486L36.314 22.0114H25.3838Z" fill="#D15B9A"/>
<path d="M25.3838 47.151L34.1281 31.8486L42.8722 47.151H25.3838Z" fill="#FF60B5"/>
<path d="M42.8721 47.151L51.6164 31.8486L60.3605 47.151H42.8721Z" fill="#FF60B5"/>
<path d="M34.1279 31.8486L42.8722 47.1509L51.6164 31.8486H34.1279Z" fill="#FF60B5"/>
<path d="M16.6396 31.8486L25.3839 47.1509L34.1281 31.8486H16.6396Z" fill="#FF60B5"/>
<path d="M46.1514 47.1511L51.6165 56.9883L60.3607 47.1511H46.1514Z" fill="#A02466"/>
<rect x="27.5713" y="42.7793" width="13.1163" height="3.27907" fill="#D42C86"/>
<rect x="36.3154" y="32.9419" width="14.2093" height="3.27907" fill="#F592C7"/>
<rect x="20.5732" y="30.7559" width="14.2093" height="3.27907" transform="rotate(60 20.5732 30.7559)" fill="#D42C86"/>
<rect x="17.7334" y="32.9419" width="14.2093" height="3.27907" fill="#F592C7"/>
<path d="M21.5593 32.3955L23.7454 36.2211H20.4663L18.2803 32.3955H21.5593Z" fill="#F760B0"/>
<rect x="19.0615" y="30.1978" width="10.0309" height="3.27907" transform="rotate(-45 19.0615 30.1978)" fill="#F592C7"/>
<rect x="26.2656" y="23.1045" width="8.74419" height="3.27907" fill="#F592C7"/>
<rect x="45.0596" y="42.7793" width="13.1163" height="3.27907" fill="#D42C86"/>
<rect x="48.3838" y="53.5615" width="10.1923" height="3.27907" transform="rotate(-48.623 48.3838 53.5615)" fill="#D42C86"/>
<rect x="42.873" y="52.6162" width="8.74419" height="3.27907" fill="#D42C86"/>
<rect x="51.124" y="33.0737" width="14.2093" height="3.46491" transform="rotate(60 51.124 33.0737)" fill="#F592C7"/>
<path d="M54.896 46.6049L52.71 42.7793H57.0821L58.7216 46.7513L54.896 46.6049Z" fill="#F760B0"/>
<path d="M16.6396 31.8484L25.3838 22.0112L30.8489 31.8484H16.6396Z" stroke="black" stroke-width="3" stroke-linejoin="round"/>
<path d="M40.6865 56.9881L46.1517 47.1509L51.6168 56.9881H40.6865Z" stroke="black" stroke-width="3" stroke-linejoin="round"/>
<path d="M25.3838 22.0114L30.8489 31.8486L36.314 22.0114H25.3838Z" stroke="black" stroke-width="3" stroke-linejoin="round"/>
<path d="M25.3838 47.151L34.1281 31.8486L42.8722 47.151H25.3838Z" stroke="black" stroke-width="3" stroke-linejoin="round"/>
<path d="M42.8721 47.151L51.6164 31.8486L60.3605 47.151H42.8721Z" stroke="black" stroke-width="3" stroke-linejoin="round"/>
<path d="M34.1279 31.8486L42.8722 47.1509L51.6164 31.8486H34.1279Z" stroke="black" stroke-width="3" stroke-linejoin="round"/>
<path d="M16.6396 31.8486L25.3839 47.1509L34.1281 31.8486H16.6396Z" stroke="black" stroke-width="3" stroke-linejoin="round"/>
<path d="M46.1514 47.1511L51.6165 56.9883L60.3607 47.1511H46.1514Z" stroke="black" stroke-width="3" stroke-linejoin="round"/>
</svg>
