<svg width="78" height="78" viewBox="0 0 78 78" fill="none" xmlns="http://www.w3.org/2000/svg">
<path d="M45.7861 32.1345C42.9898 37.7271 35.0083 37.7271 32.2119 32.1345C32.0513 31.8134 31.9143 31.481 31.8008 31.1404L30.752 27.9939C30.1334 26.1383 29.0942 22.5034 31.3076 19.5076C32.7663 17.5334 35.2484 15.9918 38.999 15.9919C42.7494 15.9921 45.2317 17.5336 46.6904 19.5076C48.904 22.5033 47.8646 26.1381 47.2461 27.9939L46.1973 31.1404C46.0837 31.481 45.9467 31.8134 45.7861 32.1345Z" fill="#D9D9D9" stroke="white" stroke-width="6"/>
<path d="M47.6256 43.3332C41.4427 42.4019 38.9762 34.811 43.431 30.4233C43.6868 30.1714 43.9605 29.9383 44.2494 29.7251L46.9178 27.7553C48.4915 26.5936 51.6272 24.482 55.1605 25.6613C57.4888 26.4386 59.7219 28.3228 60.8808 31.8899C62.0396 35.4567 61.3406 38.2939 59.914 40.2913C57.7489 43.3222 53.9708 43.4569 52.0147 43.4421L48.6982 43.417C48.3391 43.4142 47.9807 43.3866 47.6256 43.3332Z" fill="#D9D9D9" stroke="white" stroke-width="6"/>
<path d="M37.5439 48.5432C36.5189 42.3751 42.9761 37.6837 48.5256 40.5645C48.8443 40.7299 49.1505 40.9183 49.4426 41.1271L52.1406 43.0562C53.7317 44.1939 56.7089 46.5237 56.6792 50.2484C56.6595 52.703 55.5575 55.409 52.5231 57.6135C49.4889 59.8178 46.5746 60.0298 44.2342 59.2902C40.6826 58.1677 39.3869 54.6161 38.7965 52.7512L37.7956 49.5892C37.6872 49.2469 37.6027 48.8974 37.5439 48.5432Z" fill="#D9D9D9" stroke="white" stroke-width="6"/>
<path d="M29.4733 40.5645C35.0228 37.6836 41.48 42.375 40.4551 48.5432C40.3962 48.8974 40.3117 49.2468 40.2033 49.5891L39.2024 52.7512C38.6121 54.616 37.3164 58.1675 33.7647 59.2901C31.4242 60.0299 28.5101 59.8181 25.4758 57.6134C22.4418 55.4089 21.3396 52.7028 21.3198 50.2483C21.2898 46.5237 24.2672 44.1939 25.8584 43.0562L28.5563 41.1271C28.8484 40.9182 29.1546 40.7299 29.4733 40.5645Z" fill="#D9D9D9" stroke="white" stroke-width="6"/>
<path d="M34.5672 30.4234C39.0219 34.8111 36.5555 42.4019 30.3725 43.3332C30.0175 43.3867 29.659 43.4143 29.3 43.4171L25.9834 43.4422C24.0275 43.457 20.2494 43.3222 18.0841 40.2913C16.6573 38.294 15.9582 35.457 17.1173 31.89C18.2764 28.3232 20.5095 26.4387 22.8377 25.6614C26.3708 24.482 29.5066 26.5936 31.0804 27.7554L33.7487 29.7252C34.0376 29.9384 34.3114 30.1715 34.5672 30.4234Z" fill="#D9D9D9" stroke="white" stroke-width="6"/>
<path d="M44.4443 31.4641C42.2008 35.9511 35.7973 35.9511 33.5537 31.4641C33.4249 31.2064 33.3147 30.9396 33.2236 30.6663L32.1748 27.5208C31.5442 25.629 30.8032 22.7149 32.5137 20.3997C33.6819 18.8185 35.7112 17.4923 38.999 17.4924C42.2865 17.4925 44.3151 18.8187 45.4834 20.3997C47.1943 22.7149 46.4539 25.6288 45.8232 27.5208L44.7744 30.6663C44.6833 30.9395 44.5732 31.2065 44.4443 31.4641Z" fill="#B9D5F5" stroke="black" stroke-width="3"/>
<path d="M41.7598 30.1221C40.6218 32.398 37.3743 32.398 36.2363 30.1221C36.171 29.9914 36.1146 29.8564 36.0684 29.7178L35.0195 26.5713C34.3648 24.607 34.221 23.1356 34.9258 22.1816C35.5131 21.3869 36.6363 20.4921 38.998 20.4922C41.3597 20.4923 42.483 21.3869 43.0703 22.1816C43.7752 23.1355 43.6312 24.607 42.9766 26.5713L41.9277 29.7178C41.8815 29.8564 41.8251 29.9914 41.7598 30.1221Z" fill="#B9D5F5" stroke="#87BFFF" stroke-width="3"/>
<path d="M47.8491 41.8507C42.8883 41.1035 40.9096 35.0134 44.4837 31.4931C44.6889 31.2909 44.9087 31.1037 45.1405 30.9326L47.8079 28.9631C49.4123 27.7788 51.9547 26.1736 54.6852 27.0849C56.5499 27.7073 58.4383 29.2275 59.4542 32.3544C60.47 35.481 59.8356 37.8202 58.6931 39.4198C57.0198 41.7624 54.0197 41.9587 52.0255 41.9435L48.7099 41.9181C48.4218 41.9159 48.1339 41.8936 47.8491 41.8507Z" fill="#B9D5F5" stroke="black" stroke-width="3"/>
<path d="M48.2959 38.8828C45.7797 38.5038 44.7762 35.4153 46.5891 33.6297C46.6932 33.5272 46.8041 33.4318 46.9217 33.345L49.59 31.3752C51.2558 30.1456 52.6108 29.5541 53.7359 29.9296C54.6733 30.2426 55.8713 31.0343 56.601 33.2805C57.3307 35.5266 56.827 36.8713 56.2527 37.6755C55.5633 38.6407 54.1193 38.9585 52.0489 38.9428L48.7323 38.9176C48.5862 38.9165 48.4404 38.9046 48.2959 38.8828Z" fill="#B9D5F5" stroke="#87BFFF" stroke-width="3"/>
<path d="M39.0228 48.298C38.2005 43.3492 43.381 39.5854 47.8335 41.8967C48.0891 42.0294 48.3351 42.1806 48.5695 42.3482L51.2669 44.2764C52.889 45.4363 55.2013 47.3583 55.1784 50.2367C55.1627 52.2025 54.3004 54.4682 51.6405 56.4007C48.9808 58.3329 46.5601 58.4524 44.6857 57.8601C41.9406 56.9926 40.8269 54.2001 40.2251 52.2988L39.2247 49.1375C39.1378 48.8629 39.07 48.5822 39.0228 48.298Z" fill="#B9D5F5" stroke="black" stroke-width="3"/>
<path d="M41.9835 47.8057C41.5664 45.2956 44.1937 43.3868 46.4521 44.5591C46.5817 44.6264 46.7067 44.7025 46.8256 44.7875L49.5236 46.7166C51.2078 47.9208 52.1891 49.0267 52.1796 50.2127C52.1716 51.201 51.7888 52.585 49.8781 53.9732C47.9674 55.3612 46.5328 55.2977 45.5905 55C44.4596 54.6426 43.7111 53.3675 43.0862 51.3936L42.0853 48.2315C42.0412 48.0923 42.0075 47.9498 41.9835 47.8057Z" fill="#B9D5F5" stroke="#87BFFF" stroke-width="3"/>
<path d="M30.1635 41.8959C34.616 39.5846 39.7965 43.3485 38.9742 48.2973C38.927 48.5815 38.8592 48.8621 38.7723 49.1368L37.7719 52.298C37.1701 54.1992 36.0567 56.9922 33.3121 57.8599C31.4376 58.4524 29.0164 58.3325 26.3565 56.3999C23.6969 54.4675 22.8353 52.2022 22.8194 50.2365C22.7961 47.3578 25.1079 45.4356 26.7301 44.2757L29.4275 42.3474C29.6618 42.1798 29.9078 42.0286 30.1635 41.8959Z" fill="#B9D5F5" stroke="black" stroke-width="3"/>
<path d="M31.5459 44.5598C33.8043 43.3874 36.4315 45.2963 36.0144 47.8064C35.9905 47.9505 35.9568 48.0929 35.9127 48.2322L34.9118 51.3943C34.2869 53.3682 33.5383 54.6432 32.4074 55.0007C31.4651 55.2984 30.0305 55.3621 28.1199 53.9738C26.2093 52.5856 25.8264 51.2016 25.8184 50.2134C25.8088 49.0274 26.7902 47.9215 28.4744 46.7172L31.1724 44.7882C31.2912 44.7032 31.4162 44.6271 31.5459 44.5598Z" fill="#B9D5F5" stroke="#87BFFF" stroke-width="3"/>
<path d="M33.5145 31.492C37.0886 35.0123 35.1098 41.1024 30.1491 41.8496C29.8642 41.8925 29.5764 41.9148 29.2883 41.9169L25.9726 41.9424C23.9786 41.9575 20.9781 41.7618 19.3048 39.4196C18.162 37.82 17.5278 35.4802 18.5439 32.3533C19.5599 29.2267 21.4481 27.7072 23.3126 27.0846C26.0433 26.173 28.5857 27.7776 30.1902 28.962L32.8577 30.9315C33.0894 31.1026 33.3092 31.2898 33.5145 31.492Z" fill="#B9D5F5" stroke="black" stroke-width="3"/>
<path d="M31.4081 33.6305C33.221 35.4161 32.2174 38.5047 29.7013 38.8836C29.5568 38.9054 29.411 38.9174 29.2648 38.9185L25.9483 38.9436C23.8778 38.9593 22.4339 38.6414 21.7445 37.6763C21.1701 36.8722 20.6662 35.5274 21.3961 33.2813C22.126 31.0353 23.3239 30.2434 24.2613 29.9304C25.3863 29.5548 26.7413 30.1464 28.4071 31.3761L31.0755 33.3459C31.193 33.4326 31.304 33.528 31.4081 33.6305Z" fill="#B9D5F5" stroke="#87BFFF" stroke-width="3"/>
<circle cx="39" cy="39" r="6.5" fill="#FFD06C" stroke="black" stroke-width="3"/>
<path d="M43 39.9998C43 41.6566 41.2091 42.9998 39 42.9998C36.7909 42.9998 35 41.6566 35 39.9998" stroke="#E5B44B" stroke-width="3" stroke-linecap="round"/>
<path d="M37 25.9998L38 31.9998" stroke="black" stroke-width="3" stroke-linecap="round"/>
<path d="M43 44.9998L46 48.9998" stroke="black" stroke-width="3" stroke-linecap="round"/>
<path d="M35 44.9998L33 47.9998" stroke="black" stroke-width="3" stroke-linecap="round"/>
<circle cx="39" cy="38.9998" r="6.5" stroke="black" stroke-width="3"/>
</svg>
