<svg width="20" height="20" viewBox="0 0 20 20" fill="none" xmlns="http://www.w3.org/2000/svg">
<rect x="1" y="1" width="18" height="18" rx="9" stroke="#23303C" stroke-width="2"/>
<path d="M9.24902 8.79492C9.39629 8.78201 9.54195 8.83492 9.64648 8.93945L11.0605 10.3535C11.1651 10.4581 11.218 10.6037 11.2051 10.751C11.1921 10.8981 11.1142 11.0325 10.9932 11.1172C10.9545 11.1442 10.9161 11.1718 10.877 11.1992C10.8378 11.2267 10.7974 11.2545 10.7578 11.2822L6.52148 14.2451C6.48284 14.2722 6.44438 14.2997 6.40527 14.3271C6.36611 14.3546 6.32576 14.3824 6.28613 14.4102C6.08743 14.5488 5.81785 14.5249 5.64648 14.3535C5.47512 14.1822 5.45122 13.9126 5.58984 13.7139C5.61756 13.6742 5.64536 13.6339 5.67285 13.5947C5.70031 13.5556 5.72785 13.5172 5.75488 13.4785L8.71777 9.24219C8.74549 9.20256 8.77329 9.16221 8.80078 9.12305C8.82824 9.08394 8.85578 9.04548 8.88281 9.00684C8.9675 8.88577 9.10186 8.80791 9.24902 8.79492Z" stroke="#23303C" stroke-linejoin="round"/>
<path d="M13.7139 5.58984C13.9126 5.45122 14.1822 5.47512 14.3535 5.64648C14.5249 5.81785 14.5488 6.08743 14.4102 6.28613C14.3824 6.32576 14.3546 6.36611 14.3271 6.40527C14.2997 6.44438 14.2722 6.48284 14.2451 6.52148L11.2822 10.7578C11.2545 10.7974 11.2267 10.8378 11.1992 10.877C11.1718 10.9161 11.1442 10.9545 11.1172 10.9932C11.0325 11.1142 10.8981 11.1921 10.751 11.2051C10.6037 11.218 10.4581 11.1651 10.3535 11.0605L8.93945 9.64648C8.83492 9.54195 8.78201 9.39629 8.79492 9.24902C8.80791 9.10186 8.88577 8.9675 9.00684 8.88281C9.04548 8.85578 9.08394 8.82824 9.12305 8.80078C9.16221 8.77329 9.20256 8.74549 9.24219 8.71777L13.4785 5.75488C13.5172 5.72785 13.5556 5.70031 13.5947 5.67285C13.6339 5.64536 13.6742 5.61756 13.7139 5.58984Z" fill="#23303C" stroke="#23303C" stroke-linejoin="round"/>
</svg>
