<svg width="20" height="20" viewBox="0 0 20 20" fill="none" xmlns="http://www.w3.org/2000/svg">
<path d="M4 5C4 4.07003 4 3.60504 4.10222 3.22354C4.37962 2.18827 5.18827 1.37962 6.22354 1.10222C6.60504 1 7.07003 1 8 1L11.2 1C12.8802 1 13.7202 1 14.362 1.32698C14.9265 1.6146 15.3854 2.07354 15.673 2.63803C16 3.27976 16 4.11984 16 5.8L16 14.2C16 15.8802 16 16.7202 15.673 17.362C15.3854 17.9265 14.9265 18.3854 14.362 18.673C13.7202 19 12.8802 19 11.2 19L8.8 19C7.11984 19 6.27976 19 5.63803 18.673C5.07354 18.3854 4.6146 17.9265 4.32698 17.362C4 16.7202 4 15.8802 4 14.2L4 14" stroke="#007AF3" stroke-width="2"/>
<path d="M8.36439 7.1222L1.75781 13M8.36351 11.364L8.36439 7.1222L4.12087 7.12132" stroke="#007AF3" stroke-width="2" stroke-linecap="round" stroke-linejoin="round"/>
</svg>
