<svg width="20" height="20" viewBox="0 0 20 20" fill="none" xmlns="http://www.w3.org/2000/svg">
<path d="M12 7H12.2C13.8802 7 14.7202 7 15.362 7.32698C15.9265 7.6146 16.3854 8.07354 16.673 8.63803C17 9.27976 17 10.1198 17 11.8V14.2003C17 15.8804 17 16.7205 16.673 17.3622C16.3854 17.9267 15.9265 18.3857 15.362 18.6733C14.7202 19.0003 13.8802 19.0003 12.2 19.0003H7.8C6.11984 19.0003 5.27976 19.0003 4.63803 18.6733C4.07354 18.3857 3.6146 17.9267 3.32698 17.3622C3 16.7205 3 15.8804 3 14.2003V11.8C3 10.1198 3 9.27976 3.32698 8.63803C3.6146 8.07354 4.07354 7.6146 4.63803 7.32698C5.27976 7 6.11984 7 7.8 7H8" stroke="#007AF3" stroke-width="2"/>
<path d="M10.0012 1L10.0011 13M13 4L10.0012 1L7 4" stroke="#007AF3" stroke-width="2" stroke-linecap="round" stroke-linejoin="round"/>
</svg>
