<svg width="24" height="24" viewBox="0 0 24 24" fill="none" xmlns="http://www.w3.org/2000/svg">
<rect x="1" y="1" width="22" height="22" rx="3" stroke="white" stroke-width="2"/>
<mask id="path-2-inside-1_412_1661" fill="white">
<rect x="4.5" y="14" width="15" height="10" rx="1.55556"/>
</mask>
<rect x="4.5" y="14" width="15" height="10" rx="1.55556" stroke="white" stroke-width="4" mask="url(#path-2-inside-1_412_1661)"/>
<path d="M17.9443 0C18.8034 0 19.5 0.696554 19.5 1.55566V8.44434C19.5 9.30345 18.8034 10 17.9443 10H6.05566C5.19655 10 4.5 9.30345 4.5 8.44434V1.55566C4.5 0.696554 5.19655 0 6.05566 0H17.9443ZM15.5 3C14.9477 3 14.5 3.44772 14.5 4V7C14.5 7.55228 14.9477 8 15.5 8C16.0523 8 16.5 7.55228 16.5 7V4C16.5 3.44772 16.0523 3 15.5 3Z" fill="white"/>
</svg>
