<svg width="46" height="36" viewBox="0 0 46 36" fill="none" xmlns="http://www.w3.org/2000/svg">
<rect x="3" y="3" width="40" height="30" rx="7" fill="#A9EAF9" stroke="white" stroke-width="6"/>
<rect x="4.5" y="4.5" width="37" height="27" rx="5.5" stroke="#23303C" stroke-width="3"/>
<mask id="mask0_309_2694" style="mask-type:alpha" maskUnits="userSpaceOnUse" x="6" y="6" width="34" height="24">
<rect x="6" y="6" width="34" height="24" rx="4" fill="#15EFFF"/>
</mask>
<g mask="url(#mask0_309_2694)">
<circle cx="29.5" cy="13.5" r="4" fill="#FFCF4A" stroke="#23303C" stroke-width="3"/>
<path d="M29.0022 23.0685L15.1444 36.8747C13.2491 38.763 14.5864 42 17.2618 42H45.5316C48.2355 42 49.5594 38.7041 47.6069 36.8336L33.1948 23.0274C32.0181 21.9001 30.1566 21.9184 29.0022 23.0685Z" fill="#D2FFA8" stroke="#23303C" stroke-width="3" stroke-linecap="round"/>
<path d="M32.569 30.8276L19.069 17.9704C17.9103 16.867 16.0897 16.867 14.931 17.9704L1.43103 30.8276C-0.530027 32.6953 0.791867 36 3.5 36H30.5C33.2081 36 34.53 32.6953 32.569 30.8276Z" fill="#D2FFA8" stroke="#23303C" stroke-width="3"/>
</g>
</svg>
