<svg width="56" height="53" viewBox="0 0 56 53" fill="none" xmlns="http://www.w3.org/2000/svg">
<path d="M13.514 47.8727C9.86493 48.8046 6.51511 45.4547 7.44699 41.8057L7.55541 41.4404L12.2807 27.263C12.6735 26.0848 13.3353 25.0138 14.2135 24.1356L33.8848 4.46435C35.8374 2.51173 39.0032 2.51173 40.9558 4.46435L50.8553 14.3638C52.808 16.3165 52.808 19.4823 50.8553 21.4349L31.1841 41.1062C30.3059 41.9843 29.2349 42.6462 28.0567 43.039L13.8793 47.7643L13.514 47.8727Z" fill="#EDBB8A" stroke="white" stroke-width="6" stroke-linejoin="round"/>
<path d="M13.4056 46.3418C10.6695 47.2538 8.06586 44.6502 8.97791 41.9141L13.7039 27.7374C14.023 26.7801 14.5607 25.9098 15.2742 25.1963L34.9454 5.52501C36.3123 4.15818 38.5283 4.15818 39.8952 5.52501L49.7947 15.4245C51.1615 16.7913 51.1615 19.0074 49.7947 20.3743L30.1234 40.0455C29.4099 40.759 28.5396 41.2967 27.5823 41.6158L13.4056 46.3418Z" fill="#EDBB8A" stroke="#23303C" stroke-width="3" stroke-linejoin="round"/>
<path d="M11.2577 36.9916L18.3287 44.0626L9.13634 46.1839L11.2577 36.9916Z" fill="#23303C"/>
<path d="M16.2074 24.2635L34.9457 5.5252C36.3126 4.15837 38.5286 4.15837 39.8955 5.5252L49.795 15.4247C51.1618 16.7915 51.1618 19.0076 49.795 20.3744L31.0566 39.1128L16.2074 24.2635Z" fill="#C43838" stroke="#23303C" stroke-width="3"/>
<path d="M48.7342 19.3139C49.5153 18.5328 49.5153 17.2665 48.7342 16.4854L48.0271 15.7783L28.9352 34.8702L31.0566 36.9915L48.7342 19.3139Z" fill="#911A1A"/>
<path d="M36.0057 6.5856C36.7868 5.80455 38.0531 5.80455 38.8341 6.5856L43.7839 11.5353L24.692 30.6272L18.328 24.2633L36.0057 6.5856Z" fill="#DF4848"/>
<path d="M18.3287 28.5063L16.2074 26.3849C15.7424 26.85 15.392 27.4169 15.1841 28.0407L11.9648 37.6987L12.6719 38.4058L18.3287 28.5063Z" fill="#FFDAB5"/>
<path d="M26.8136 36.9913L28.9349 39.1127C28.4699 39.5777 27.903 39.928 27.2791 40.136L17.6212 43.3553L16.9141 42.6482L26.8136 36.9913Z" fill="#D59F6A"/>
</svg>
